<?xml version="1.0" encoding="UTF-8"?> <svg xmlns="http://www.w3.org/2000/svg" width="485" height="106" viewBox="0 0 485 106"> <path fill="#005BFF" fill-rule="nonzero" d="M56.485 80.751c12.543-1.595 22.67-11.723 24.266-24.266 2.338-18.4-13.207-33.946-31.608-31.607C36.6 26.472 26.472 36.6 24.878 49.143c-2.34 18.401 13.207 33.947 31.607 31.608zM58.203.267c24.717 2.448 44.71 22.441 47.158 47.16 3.308 33.401-24.533 61.242-57.936 57.934-24.717-2.448-44.71-22.44-47.157-47.158C-3.042 24.801 24.8-3.04 58.203.267zm75.497 2.09h77.314c2.935 0 4.603 3.36 2.83 5.698L160.358 78.62h41.907c7.638 0 13.653 6.95 12.067 14.87-1.163 5.807-6.608 9.774-12.531 9.774h-83.963c-2.908 0-4.561-3.328-2.805-5.645l53.527-70.618h-34.396c-5.923 0-11.368-3.966-12.531-9.774-1.586-7.92 4.429-14.87 12.067-14.87zm335.513.281c7.975-1.679 15 4.36 15 12.04V99.71c0 2.967-3.426 4.622-5.751 2.778l-66.694-52.91v41.386c0 7.68-7.025 13.718-15 12.04-5.72-1.203-9.644-6.526-9.644-12.368V5.911c0-2.967 3.426-4.623 5.75-2.779l66.696 52.912-.001-41.038c0-5.843 3.927-11.165 9.644-12.368zM295.56 0c40.83 0 73.932 23.64 73.932 52.8 0 29.16-33.101 52.8-73.932 52.8-40.832 0-73.933-23.64-73.933-52.8 0-29.16 33.1-52.8 73.933-52.8zm0 24.644c-28.21 0-49.288 14.865-49.288 28.156 0 13.291 21.078 28.156 49.288 28.156 28.209 0 49.287-14.865 49.287-28.156 0-13.29-21.078-28.156-49.287-28.156z"></path> </svg> 